<mxfile host="app.diagrams.net" modified="2024-11-19T04:57:09.764Z" agent="Mozilla/5.0 (Windows NT 10.0; Win64; x64) AppleWebKit/537.36 (KHTML, like Gecko) Chrome/131.0.0.0 Safari/537.36" version="24.6.5" etag="o0dmnkRvxFJv29yU3Uou" type="github">
  <diagram name="Halaman-1" id="H0-rOwtRsiVt5H2oJ21e">
    <mxGraphModel>
      <root>
        <mxCell id="0" />
        <mxCell id="1" parent="0" />
      </root>
    </mxGraphModel>
  </diagram>
</mxfile>
